<svg width="150" height="27" viewBox="0 0 150 27" fill="none" xmlns="http://www.w3.org/2000/svg">
<g clip-path="url(#clip0_603_1116)">
<path d="M23.8823 -2.74065e-05H10.17V9.85578H21.5526V14.5564H11.0716C10.4943 14.5562 9.9407 14.327 9.53236 13.9192L6.10346 10.4929C5.90124 10.291 5.74084 10.0512 5.63143 9.78729C5.52202 9.52337 5.46575 9.24049 5.46583 8.95482V-0.00500488H3.14115C2.72953 -0.00500494 2.32195 0.0760344 1.94169 0.233484C1.56143 0.390933 1.21594 0.621706 0.924959 0.912618C0.63398 1.20353 0.403215 1.54888 0.245848 1.92893C0.0884805 2.30899 0.00759481 2.71631 0.00781294 3.12762V23.8613C0.00759481 24.2726 0.0884805 24.6799 0.245848 25.06C0.403215 25.44 0.63398 25.7854 0.924959 26.0763C1.21594 26.3672 1.56143 26.598 1.94169 26.7554C2.32195 26.9129 2.72953 26.9939 3.14115 26.9939H23.8823C24.2939 26.9939 24.7015 26.9129 25.0817 26.7554C25.462 26.598 25.8075 26.3672 26.0985 26.0763C26.3895 25.7854 26.6202 25.44 26.7776 25.06C26.9349 24.6799 27.0158 24.2726 27.0156 23.8613V3.13259C27.0158 2.72129 26.9349 2.31397 26.7776 1.93392C26.6202 1.55386 26.3895 1.20851 26.0985 0.917595C25.8075 0.626683 25.462 0.39591 25.0817 0.238461C24.7015 0.0810118 24.2939 -2.74642e-05 23.8823 -2.74065e-05ZM21.5576 21.56H11.0716C10.4943 21.5598 9.9407 21.3306 9.53236 20.9228L5.46583 16.8577H21.5526L21.5576 21.56Z" fill="white"/>
<path d="M43.6687 18.5987H49.2114V21.5073H40.293V3.53293H43.6687V18.5987Z" fill="white"/>
<path d="M63.9642 8.16531V21.5071H60.5652V19.8214C60.1206 20.409 59.5369 20.8771 58.8666 21.1836C58.1537 21.517 57.3754 21.6871 56.5884 21.6814C55.623 21.7 54.669 21.4715 53.817 21.0177C53.0064 20.5692 52.3475 19.89 51.9241 19.0664C51.468 18.207 51.2394 17.1832 51.2383 15.9952V8.16531H54.6124V15.5107C54.6124 16.5715 54.8775 17.3862 55.4078 17.9547C55.938 18.5233 56.6609 18.8104 57.5764 18.8159C58.5096 18.8159 59.2407 18.5305 59.7699 17.9597C60.299 17.3889 60.5641 16.5743 60.5652 15.5157V8.16531H63.9642Z" fill="white"/>
<path d="M87.8376 9.47789C88.8405 10.4812 89.3425 11.8821 89.3436 13.6807V21.5073H85.9695V14.1387C85.9695 13.0945 85.7044 12.2953 85.1742 11.7411C84.6439 11.1869 83.9205 10.9104 83.0039 10.9115C82.0895 10.9115 81.3628 11.188 80.8237 11.7411C80.2846 12.2941 80.015 13.0933 80.015 14.1387V21.5073H76.6409V14.1387C76.6409 13.0945 76.3758 12.2953 75.8455 11.7411C75.3153 11.1869 74.5924 10.9104 73.677 10.9115C72.7438 10.9115 72.0082 11.188 71.4702 11.7411C70.9322 12.2941 70.6632 13.0933 70.6632 14.1387V21.5073H67.2891V8.16544H70.6632V9.77821C71.1071 9.20795 71.6817 8.75269 72.3386 8.45083C73.0444 8.12453 73.8143 7.96013 74.5919 7.96966C75.5649 7.9529 76.5266 8.18114 77.3881 8.63335C78.1946 9.06162 78.8571 9.71776 79.2927 10.5199C79.7379 9.73801 80.393 9.09606 81.184 8.66653C82.0026 8.20535 82.9277 7.96624 83.8674 7.97297C85.5101 7.97297 86.8335 8.47461 87.8376 9.47789Z" fill="white"/>
<path d="M95.9265 8.93371V21.5073H92.5508V8.93371H95.9265ZM95.9265 6.90447H92.5508V3.53293H95.9265V6.90447Z" fill="white"/>
<path d="M102.466 9.60238V17.3891C102.466 17.8393 102.577 18.1645 102.798 18.3647C103.02 18.565 103.385 18.6656 103.896 18.6667H105.455V21.5073H103.338C100.494 21.5073 99.0714 20.1246 99.0703 17.3593V3.53293H102.466V6.83313H105.455V9.60238H102.466Z" fill="white"/>
<path d="M120.209 15.8474H110.449C110.529 16.8119 110.866 17.5669 111.46 18.1122C112.058 18.6588 112.844 18.952 113.654 18.9302C114.907 18.9302 115.799 18.3926 116.329 17.3174H119.969C119.594 18.5861 118.816 19.6981 117.752 20.4849C116.659 21.3112 115.318 21.7243 113.727 21.7243C112.521 21.743 111.33 21.4486 110.271 20.8698C109.26 20.3089 108.431 19.4684 107.885 18.449C107.296 17.3365 107 16.0922 107.025 14.8336C106.998 13.5699 107.288 12.3194 107.869 11.1965C108.404 10.1804 109.226 9.34299 110.232 8.78735C111.299 8.23737 112.481 7.94846 113.682 7.94442C114.882 7.94039 116.067 8.22133 117.138 8.76413C118.126 9.29529 118.938 10.1024 119.476 11.087C120.044 12.1491 120.33 13.3391 120.306 14.5432C120.31 14.9798 120.278 15.4161 120.209 15.8474ZM116.812 13.5842C116.819 13.1891 116.738 12.7974 116.576 12.4371C116.413 12.0768 116.173 11.7569 115.872 11.5002C115.246 10.9732 114.449 10.6945 113.631 10.717C112.857 10.6945 112.103 10.9661 111.522 11.477C110.951 11.9836 110.601 12.686 110.472 13.5842H116.812Z" fill="white"/>
<path d="M122.741 11.2113C123.277 10.2033 124.087 9.36781 125.079 8.80214C126.125 8.22027 127.305 7.92543 128.502 7.94764C130.162 7.94764 131.532 8.36134 132.611 9.18874C133.691 10.0161 134.418 11.1776 134.793 12.6731H131.153C130.983 12.1265 130.64 11.6494 130.177 11.3126C129.678 10.97 129.083 10.7956 128.478 10.8148C127.514 10.8148 126.75 11.1643 126.187 11.8634C125.623 12.5625 125.342 13.5525 125.343 14.8334C125.343 16.1011 125.625 17.0844 126.187 17.7835C126.749 18.4826 127.513 18.8316 128.478 18.8305C129.843 18.8305 130.735 18.2221 131.153 17.0054H134.793C134.475 18.3693 133.701 19.5842 132.6 20.4499C131.506 21.3016 130.14 21.727 128.502 21.7259C127.305 21.7481 126.125 21.4532 125.079 20.8714C124.087 20.3057 123.277 19.4702 122.741 18.4622C122.177 17.4257 121.895 16.2161 121.895 14.8334C121.895 13.4507 122.177 12.2434 122.741 11.2113Z" fill="white"/>
<path d="M147.49 8.63505C148.286 9.08641 148.929 9.76611 149.335 10.5863C149.777 11.4436 149.999 12.475 149.999 13.6808V21.5073H146.631V14.1387C146.631 13.079 146.366 12.2638 145.836 11.693C145.306 11.1222 144.582 10.8374 143.666 10.8385C142.734 10.8385 141.999 11.1233 141.461 11.693C140.923 12.2627 140.654 13.0779 140.654 14.1387V21.5073H137.27V3.53293H140.654V9.82637C141.107 9.23311 141.704 8.7649 142.389 8.4658C143.147 8.128 143.97 7.95819 144.8 7.96804C145.739 7.95365 146.666 8.18351 147.49 8.63505Z" fill="white"/>
</g>
<defs>
<clipPath id="clip0_603_1116">
<rect width="150" height="26.9923" fill="white"/>
</clipPath>
</defs>
</svg>
