<svg width="150" height="27" viewBox="0 0 150 27" fill="none" xmlns="http://www.w3.org/2000/svg">
<path d="M23.8823 0.00107123H10.17V9.85687H21.5526V14.5575H11.0716C10.4943 14.5573 9.9407 14.3281 9.53236 13.9203L6.10346 10.494C5.90124 10.2921 5.74084 10.0523 5.63143 9.78838C5.52202 9.52446 5.46575 9.24158 5.46583 8.95592V-0.00390625H3.14115C2.72953 -0.00390631 2.32195 0.077133 1.94169 0.234582C1.56143 0.392031 1.21594 0.622804 0.924959 0.913717C0.63398 1.20463 0.403215 1.54998 0.245848 1.93003C0.0884805 2.31009 0.00759481 2.71741 0.00781294 3.12871V23.8624C0.00759481 24.2737 0.0884805 24.681 0.245848 25.0611C0.403215 25.4411 0.63398 25.7865 0.924959 26.0774C1.21594 26.3683 1.56143 26.5991 1.94169 26.7565C2.32195 26.914 2.72953 26.995 3.14115 26.995H23.8823C24.2939 26.995 24.7015 26.914 25.0817 26.7565C25.462 26.5991 25.8075 26.3683 26.0985 26.0774C26.3895 25.7865 26.6202 25.4411 26.7776 25.0611C26.9349 24.681 27.0158 24.2737 27.0156 23.8624V3.13369C27.0158 2.72239 26.9349 2.31507 26.7776 1.93502C26.6202 1.55496 26.3895 1.20961 26.0985 0.918694C25.8075 0.627782 25.462 0.397009 25.0817 0.23956C24.7015 0.0821105 24.2939 0.00107117 23.8823 0.00107123ZM21.5576 21.5611H11.0716C10.4943 21.5609 9.9407 21.3317 9.53236 20.9239L5.46583 16.8588H21.5526L21.5576 21.5611Z" fill="#1763FA"/>
<path d="M43.6726 18.597H49.2154V21.5056H40.2969V3.53125H43.6726V18.597Z" fill="#131F37"/>
<path d="M63.9603 8.16406V21.5059H60.5613V19.8201C60.1167 20.4077 59.533 20.8758 58.8626 21.1823C58.1498 21.5157 57.3715 21.6858 56.5845 21.6801C55.6191 21.6987 54.6651 21.4703 53.8131 21.0164C53.0025 20.5679 52.3436 19.8888 51.9202 19.0652C51.4641 18.2057 51.2355 17.182 51.2344 15.9939V8.16406H54.6085V15.5095C54.6085 16.5703 54.8736 17.3849 55.4039 17.9535C55.9341 18.5221 56.657 18.8091 57.5725 18.8146C58.5056 18.8146 59.2368 18.5292 59.766 17.9585C60.2951 17.3877 60.5602 16.573 60.5613 15.5144V8.16406H63.9603Z" fill="#131F37"/>
<path d="M87.8373 9.47789C88.8403 10.4812 89.3423 11.8821 89.3434 13.6807V21.5073H85.9693V14.1387C85.9693 13.0945 85.7042 12.2953 85.1739 11.7411C84.6437 11.1869 83.9202 10.9104 83.0037 10.9115C82.0893 10.9115 81.3625 11.188 80.8234 11.7411C80.2843 12.2941 80.0148 13.0933 80.0148 14.1387V21.5073H76.6407V14.1387C76.6407 13.0945 76.3756 12.2953 75.8453 11.7411C75.3151 11.1869 74.5922 10.9104 73.6767 10.9115C72.7435 10.9115 72.0079 11.188 71.4699 11.7411C70.9319 12.2941 70.6629 13.0933 70.6629 14.1387V21.5073H67.2888V8.16544H70.6629V9.77821C71.1068 9.20795 71.6815 8.75269 72.3384 8.45083C73.0441 8.12453 73.814 7.96013 74.5916 7.96966C75.5647 7.9529 76.5263 8.18114 77.3879 8.63335C78.1944 9.06162 78.8568 9.71776 79.2925 10.5199C79.7377 9.73801 80.3928 9.09606 81.1838 8.66653C82.0023 8.20535 82.9274 7.96624 83.8671 7.97297C85.5099 7.97297 86.8333 8.47461 87.8373 9.47789Z" fill="#131F37"/>
<path d="M95.9226 8.93203V21.5056H92.5469V8.93203H95.9226ZM95.9226 6.90279H92.5469V3.53125H95.9226V6.90279Z" fill="#131F37"/>
<path d="M102.466 9.6007V17.3874C102.466 17.8376 102.577 18.1629 102.798 18.3631C103.02 18.5633 103.385 18.6639 103.896 18.665H105.455V21.5056H103.338C100.494 21.5056 99.0714 20.123 99.0703 17.3576V3.53125H102.466V6.83145H105.455V9.6007H102.466Z" fill="#131F37"/>
<path d="M120.209 15.8483H110.449C110.529 16.8129 110.866 17.5678 111.46 18.1131C112.058 18.6597 112.844 18.953 113.654 18.9311C114.907 18.9311 115.799 18.3935 116.329 17.3184H119.969C119.594 18.587 118.816 19.699 117.752 20.4858C116.659 21.3121 115.318 21.7253 113.727 21.7253C112.521 21.7439 111.33 21.4495 110.271 20.8708C109.26 20.3098 108.431 19.4693 107.885 18.45C107.296 17.3374 107 16.0931 107.025 14.8345C106.998 13.5708 107.288 12.3204 107.869 11.1975C108.404 10.1814 109.226 9.34392 110.232 8.78829C111.299 8.2383 112.481 7.94939 113.682 7.94536C114.882 7.94132 116.067 8.22226 117.138 8.76506C118.126 9.29622 118.938 10.1033 119.476 11.088C120.044 12.15 120.33 13.3401 120.306 14.5441C120.31 14.9808 120.278 15.417 120.209 15.8483ZM116.812 13.5851C116.819 13.19 116.738 12.7983 116.576 12.438C116.413 12.0778 116.173 11.7578 115.872 11.5011C115.246 10.9742 114.449 10.6954 113.631 10.718C112.857 10.6955 112.103 10.967 111.522 11.4779C110.951 11.9845 110.601 12.6869 110.472 13.5851H116.812Z" fill="#131F37"/>
<path d="M122.737 11.2102C123.273 10.2021 124.084 9.36665 125.075 8.80098C126.121 8.21911 127.301 7.92427 128.498 7.94648C130.158 7.94648 131.528 8.36018 132.607 9.18758C133.687 10.015 134.414 11.1764 134.789 12.672H131.149C130.979 12.1253 130.637 11.6482 130.173 11.3114C129.674 10.9688 129.079 10.7944 128.474 10.8136C127.51 10.8136 126.746 11.1632 126.183 11.8623C125.62 12.5613 125.338 13.5513 125.339 14.8323C125.339 16.0999 125.621 17.0833 126.183 17.7824C126.745 18.4815 127.509 18.8305 128.474 18.8293C129.839 18.8293 130.731 18.221 131.149 17.0042H134.789C134.471 18.3681 133.698 19.5831 132.596 20.4488C131.502 21.3005 130.136 21.7258 128.498 21.7247C127.301 21.7469 126.121 21.4521 125.075 20.8702C124.084 20.3045 123.273 19.4691 122.737 18.461C122.173 17.4245 121.891 16.215 121.891 14.8323C121.891 13.4496 122.173 12.2422 122.737 11.2102Z" fill="#131F37"/>
<path d="M147.486 8.63337C148.282 9.08473 148.925 9.76443 149.331 10.5846C149.774 11.4419 149.995 12.4734 149.995 13.6791V21.5056H146.627V14.137C146.627 13.0773 146.362 12.2621 145.832 11.6913C145.302 11.1205 144.578 10.8357 143.662 10.8368C142.73 10.8368 141.995 11.1217 141.457 11.6913C140.919 12.261 140.65 13.0762 140.65 14.137V21.5056H137.266V3.53125H140.65V9.82469C141.103 9.23143 141.7 8.76322 142.385 8.46413C143.143 8.12632 143.966 7.95651 144.796 7.96636C145.735 7.95197 146.662 8.18183 147.486 8.63337Z" fill="#131F37"/>
</svg>
